<?xml version="1.0" encoding="UTF-8" standalone="no"?>
<!-- Created with Inkscape (http://www.inkscape.org/) -->

<svg
 width="500"
 height="500"
 viewBox="0 0 132.3 132.2"
 version="1.1"
 id="svg5"
 xml:space="preserve"
 inkscape:version="1.2.1 (9c6d41e, 2022-07-14)"
 sodipodi:docname="pickaxe.svg"
 xmlns:inkscape="http://www.inkscape.org/namespaces/inkscape"
 xmlns:sodipodi="http://sodipodi.sourceforge.net/DTD/sodipodi-0.dtd"
 xmlns="http://www.w3.org/2000/svg"
 xmlns:svg="http://www.w3.org/2000/svg"><sodipodi:namedview
 id="namedview7"
 pagecolor="#ffffff"
 bordercolor="#999999"
 borderopacity="1"
 inkscape:showpageshadow="0"
 inkscape:pageopacity="0"
 inkscape:pagecheckerboard="0"
 inkscape:deskcolor="#d1d1d1"
 inkscape:document-units="mm"
 showgrid="false"
 inkscape:zoom="2"
 inkscape:cx="261"
 inkscape:cy="168.2"
 inkscape:window-width="1846"
 inkscape:window-height="1016"
 inkscape:window-x="74"
 inkscape:window-y="27"
 inkscape:window-maximized="1"
 inkscape:current-layer="layer1" /><defs
 id="defs2" /><g
 inkscape:label="Livello 1"
 inkscape:groupmode="layer"
 id="layer1"><path
 style="fill:#000000;stroke-width:0.999944"
 d="m 6.142,121.4 c -0.247,-0.3 -0.366,-0.6 -0.486,-0.7 0,-0.2 10.564,-11 30.934,-31.43 L 67.44,58.12 C 74.73,50.2 74.75,50.19 81.4,42.68 78.67,40.17 71.51,33.18 68.19,29.78 66.36,28.29 40.17,8.337 35.14,6.794 34.46,6.573 34.54,6.496 36.67,5.805 c 3.33,-1.09 4.1,-0.98 8.61,1.279 8.44,4.146 21.22,11.586 23.1,13.386 4.61,2.04 8.31,4.84 12.19,7.65 3.49,2.51 3.36,2.7 3.85,3.16 0.92,0.83 1.18,1.58 2.71,2.51 l 0.94,0.6 1.19,-1.23 c 1.28,-1.21 1.28,-1.27 2.22,-1.19 l 0.85,0.1 4.47,4.46 c 3.8,3.68 4.2,4.49 4.3,4.64 0.3,0.33 0.2,0.24 0,0.57 -0.3,0.44 -0.4,0.79 -1.49,1.63 l -1.28,1.03 0.68,1.15 c 0.26,0.55 2.19,3.25 4.09,5.89 7.1,9.67 23.8,39.18 23.9,42.21 0,0.22 -2.2,0.22 -2.2,0 0,-0.12 -1.8,-2.78 -4,-5.95 -11,-16.59 -26,-31.35 -30.35,-36.09 -0.1,-0.11 -0.1,-0.11 -0.23,0 -4.53,3.59 -7.06,5.7 -14.96,12.42 -2.67,2.27 -5.35,5.04 -41.74,41.37 -22.43,22.4 -21.59,21.6 -22.62,21 -0.79,-0.6 -4.34,-4.1 -4.758,-5 z"
 id="path3590"
 sodipodi:nodetypes="ssscccsssccsscsscsssscsssscssssss" /></g></svg>
