<!--?xml version="1.0" standalone="no"?-->
              <svg id="sw-js-blob-svg" viewBox="0 0 100 100" xmlns="http://www.w3.org/2000/svg" version="1.1">
                    <defs> 
                        <linearGradient id="sw-gradient" x1="0" x2="1" y1="1" y2="0">
                            <stop id="stop1" stop-color="rgba(248, 117, 55, 1)" offset="0%"></stop>
                            <stop id="stop2" stop-color="rgba(251, 168, 31, 1)" offset="100%"></stop>
                        </linearGradient>
                    </defs>
                <path fill="url(#sw-gradient)" d="M23.7,-30.3C31.1,-27.3,37.6,-20.8,39.2,-13.3C40.8,-5.8,37.5,2.6,34.4,11C31.4,19.3,28.7,27.5,23,32.2C17.3,37,8.6,38.4,0,38.4C-8.7,38.5,-17.3,37.1,-22.7,32.2C-28,27.3,-30,18.9,-29.2,11.7C-28.5,4.6,-24.9,-1.2,-22.9,-7.5C-21,-13.9,-20.6,-20.9,-17.1,-25.2C-13.5,-29.4,-6.8,-31,0.7,-31.9C8.2,-32.9,16.4,-33.4,23.7,-30.3Z" width="100%" height="100%" transform="translate(50 50)" style="transition: all 0.3s ease 0s;" stroke-width="0"></path>
              </svg>