<?xml version="1.0" encoding="UTF-8" standalone="no"?>
<!-- Created with Inkscape (http://www.inkscape.org/) -->

<svg
 width="50"
 height="50"
 viewBox="0 0 50 50"
 version="1.1"
 id="svg5"
 sodipodi:docname="block-explorer.svg"
 inkscape:version="1.2.1 (9c6d41e, 2022-07-14)"
 xmlns:inkscape="http://www.inkscape.org/namespaces/inkscape"
 xmlns:sodipodi="http://sodipodi.sourceforge.net/DTD/sodipodi-0.dtd"
 xmlns="http://www.w3.org/2000/svg"
 xmlns:svg="http://www.w3.org/2000/svg">
<sodipodi:namedview
 id="namedview7"
 pagecolor="#ffffff"
 bordercolor="#999999"
 borderopacity="1"
 inkscape:showpageshadow="0"
 inkscape:pageopacity="0"
 inkscape:pagecheckerboard="0"
 inkscape:deskcolor="#d1d1d1"
 inkscape:document-units="mm"
 showgrid="false"
 inkscape:zoom="12.12"
 inkscape:cx="32.85"
 inkscape:cy="15.89"
 inkscape:window-width="1846"
 inkscape:window-height="1016"
 inkscape:window-x="74"
 inkscape:window-y="27"
 inkscape:window-maximized="1"
 inkscape:current-layer="layer1" />
<defs
 id="defs2" />
<g
 inkscape:label="Livello 1"
 inkscape:groupmode="layer"
 id="layer1">
<path
 style="fill:#000000;stroke-width:30"
 id="path138"
 d="M 3.011,14 C 3.457,13.94 3.886,13.78 4.314,13.65 5.857,13.19 7.346,12.58 8.829,11.96 10.55,11.23 12.28,10.51 14,9.783 15.4,9.198 16.82,8.639 18.21,8.029 19.25,7.564 20.3,7.1 21.34,6.608 c 0.76,-0.356 1.5,-0.745 2.25,-1.129 0.22,-0.09 0.45,-0.27 0.71,-0.253 0.19,0.01 0.6,0.237 0.75,0.312 1.86,1.06 3.74,2.102 5.63,3.122 2.16,1.159 4.36,2.25 6.57,3.32 0.63,0.31 1.07,-0.59 0.43,-0.9 v 0 C 35.49,10.01 33.3,8.933 31.15,7.78 29.25,6.753 27.36,5.701 25.48,4.637 25.18,4.494 24.92,4.348 24.59,4.281 24.02,4.167 23.62,4.332 23.13,4.59 22.39,4.97 21.66,5.353 20.91,5.705 19.88,6.192 18.84,6.652 17.81,7.113 16.42,7.721 15.01,8.279 13.61,8.862 11.89,9.59 10.17,10.31 8.444,11.03 6.99,11.64 5.53,12.25 4.016,12.69 c -0.26,0.1 -0.52,0.17 -0.782,0.24 -0.08,0 -0.154,0 -0.229,0.1 0,0 0,0 0,0 -0.707,0 -0.707,1 0,1 z" />
<path
 style="fill:#000000;stroke-width:30"
 id="path140"
 d="m 2.146,14.12 c -0.02,1.01 0.04,2 0.125,3 0.219,1.78 0.482,3.55 0.723,5.32 0.244,1.78 0.462,3.55 0.65,5.33 0.112,1.14 0.243,2.28 0.301,3.43 0.02,0.73 0.04,1.46 0.09,2.19 0,0.11 0.02,0.22 0.02,0.33 0.05,0.71 1.045,0.64 0.997,-0.1 v 0 c 0,-0.1 -0.01,-0.21 -0.02,-0.32 C 4.984,32.6 4.963,31.88 4.943,31.15 4.883,29.98 4.754,28.82 4.639,27.66 4.449,25.87 4.23,24.09 3.984,22.31 3.746,20.55 3.486,18.79 3.267,17.03 3.18,16.07 3.122,15.1 3.146,14.12 c 0,-0.7 -1,-0.7 -1,0 z" />
<path
 style="fill:#000000;stroke-width:30"
 id="path142"
 d="m 4.871,35.86 c 0.281,0.41 0.704,0.7 1.102,0.98 0.613,0.43 1.1,0.72 1.743,1.12 2.454,1.55 5.004,2.91 7.574,4.23 1.84,0.94 3.71,1.83 5.57,2.72 0.96,0.43 1.89,0.92 2.81,1.43 0.4,0.22 0.2,0.12 0.59,0.32 0.62,0.34 1.1,-0.54 0.47,-0.88 v 0 C 24.35,45.58 24.55,45.68 24.15,45.47 23.21,44.95 22.27,44.45 21.29,44.01 19.44,43.12 17.58,42.24 15.75,41.3 13.2,39.99 10.67,38.64 8.248,37.11 7.605,36.71 7.175,36.45 6.565,36.03 6.275,35.83 5.943,35.62 5.718,35.33 5.342,34.73 4.495,35.27 4.871,35.86 Z" />
<path
 style="fill:#000000;stroke-width:30"
 id="path144"
 d="m 25.17,47.63 c 0.52,-0.45 1.01,-0.93 1.5,-1.42 1.42,-1.39 2.86,-2.76 4.27,-4.16 1.22,-1.23 2.48,-2.4 3.74,-3.58 0.91,-0.86 1.83,-1.71 2.76,-2.54 0.63,-0.55 1.23,-1.13 1.82,-1.72 0.21,-0.21 0.42,-0.42 0.64,-0.63 0.5,-0.49 -0.21,-1.2 -0.71,-0.71 v 0 c -0.21,0.21 -0.42,0.42 -0.63,0.63 -0.58,0.57 -1.17,1.15 -1.79,1.69 -0.94,0.83 -1.86,1.69 -2.78,2.55 -1.26,1.18 -2.53,2.36 -3.75,3.59 -1.41,1.41 -2.86,2.78 -4.28,4.17 -0.47,0.47 -0.93,0.94 -1.44,1.37 -0.54,0.45 0.11,1.22 0.65,0.76 z" />
<path
 style="fill:#000000;stroke-width:30"
 id="path146"
 d="m 38.45,13.16 c 0,0.8 0,1.6 0,2.4 0,1.35 0,2.69 0.1,4.03 0,0.96 0,1.92 0.1,2.88 0,0.88 0,1.75 0,2.63 0,0.8 0,1.6 0,2.4 0,0.72 0,1.43 0,2.14 0,0.43 0,0.85 -0.1,1.27 -0.1,0.71 0.94,0.79 1,0.1 v 0 c 0,-0.45 0.1,-0.9 0.1,-1.34 0,-0.72 0,-1.44 0,-2.16 0,-0.8 0,-1.6 0,-2.41 0,-0.88 0,-1.75 0,-2.63 0,-0.97 0,-1.93 -0.1,-2.89 0,-1.34 -0.1,-2.68 -0.1,-4.02 0,-0.79 0,-1.59 0,-2.39 0,-0.71 -1,-0.71 -1,0 z" />
<path
 style="fill:#000000;stroke-width:30"
 id="path156"
 d="m 2.973,14.56 c 0.328,0.23 0.655,0.47 0.98,0.7 0.595,0.42 1.157,0.88 1.774,1.26 0.177,0.12 0.359,0.22 0.539,0.32 0.904,0.51 1.836,0.97 2.775,1.42 0.957,0.45 1.969,0.77 2.979,1.1 0.94,0.29 1.85,0.67 2.76,1.03 0.7,0.29 1.4,0.59 2.11,0.87 0.65,0.27 1.03,-0.66 0.37,-0.93 v 0 C 16.56,20.05 15.85,19.75 15.15,19.46 14.22,19.09 13.29,18.71 12.33,18.41 11.36,18.1 10.39,17.79 9.467,17.35 8.556,16.92 7.651,16.48 6.773,15.98 6.324,15.72 6.243,15.68 5.819,15.39 5.384,15.09 4.976,14.75 4.539,14.45 4.2,14.21 3.86,13.96 3.517,13.72 2.924,13.34 2.38,14.18 2.973,14.56 Z" />
<path
 style="fill:#000000;stroke-width:30"
 id="path166"
 d="m 38.23,11.96 c -0.18,0.26 -0.44,0.46 -0.68,0.67 -1.22,1.03 -2.44,2.06 -3.66,3.08 -1.44,1.24 -2.93,2.42 -4.43,3.59 -0.2,0.15 -0.4,0.3 -0.59,0.45 -0.56,0.44 0.1,1.23 0.61,0.79 v 0 c 0.2,-0.15 0.4,-0.3 0.59,-0.46 1.51,-1.17 3.01,-2.35 4.47,-3.6 1.22,-1.03 2.44,-2.07 3.67,-3.1 0.3,-0.26 0.61,-0.51 0.83,-0.84 0.41,-0.57 -0.4,-1.16 -0.81,-0.58 z" />
<path
 style="fill:#000000;stroke-width:30"
 id="path170"
 d="m 23.23,25.17 c 0,0.65 0,1.3 0,1.96 0,1.85 0,3.71 0,5.57 0,1.7 0,3.41 0,5.11 0,1.3 0,2.6 0,3.91 0,0.48 0,0.97 0.1,1.46 0,0.7 1.03,0.65 0.99,-0.1 v 0 c 0,-0.47 -0.1,-0.95 -0.1,-1.42 0,-1.29 -0.1,-2.59 0,-3.88 0,-1.71 0,-3.41 0,-5.12 0,-1.85 0,-3.71 0,-5.57 0,-0.62 0,-1.25 0,-1.88 0.1,-0.7 -0.93,-0.79 -0.99,-0.1 z" />
</g>
</svg>
