<?xml version="1.0" encoding="UTF-8" standalone="no"?>
<!-- Created with Inkscape (http://www.inkscape.org/) -->

<svg
 width="50"
 height="50"
 viewBox="0 0 50 50"
 version="1.1"
 id="svg5"
 sodipodi:docname="cmc.svg"
 inkscape:version="1.2.1 (9c6d41e, 2022-07-14)"
 xmlns:inkscape="http://www.inkscape.org/namespaces/inkscape"
 xmlns:sodipodi="http://sodipodi.sourceforge.net/DTD/sodipodi-0.dtd"
 xmlns="http://www.w3.org/2000/svg"
 xmlns:svg="http://www.w3.org/2000/svg">
<sodipodi:namedview
 id="namedview7"
 pagecolor="#ffffff"
 bordercolor="#999999"
 borderopacity="1"
 inkscape:showpageshadow="0"
 inkscape:pageopacity="0"
 inkscape:pagecheckerboard="0"
 inkscape:deskcolor="#d1d1d1"
 inkscape:document-units="mm"
 showgrid="false"
 inkscape:zoom="8.57"
 inkscape:cx="39.79"
 inkscape:cy="17.91"
 inkscape:window-width="1846"
 inkscape:window-height="1016"
 inkscape:window-x="74"
 inkscape:window-y="27"
 inkscape:window-maximized="1"
 inkscape:current-layer="layer1" />
<defs
 id="defs2">
<inkscape:path-effect
 effect="bspline"
 id="path-effect5213"
 is_visible="true"
 lpeversion="1"
 weight="33.33"
 steps="2"
 helper_size="0"
 apply_no_weight="true"
 apply_with_weight="true"
 only_selected="false" />
</defs>
<g
 inkscape:label="Livello 1"
 inkscape:groupmode="layer"
 id="layer1">
<path
 style="fill:none;stroke:#000000;stroke-width:1;stroke-linecap:round;stroke-linejoin:miter;stroke-dasharray:none;stroke-opacity:1"
 d="m 37.94,34.76 c -1.57,1.03 -3.14,2.07 -6.43,2.75 -3.28,0.68 -8.27,1 -11.72,0 -3.45,-0.97 -5.35,-3.23 -6.34,-6.23 -0.99,-3.01 -1.07,-6.78 -0.38,-10.07 0.69,-3.29 2.13,-6.1 5.13,-7.57 2.99,-1.47 7.53,-1.58 10.88,-0.86 3.36,0.72 5.53,2.27 6.82,4.91 1.29,2.64 1.69,6.36 1.69,8.93 0,2.58 -0.39,4 -1.25,4.87 -0.86,0.87 -2.18,1.18 -3.03,0.1 -0.85,-1.09 -1.22,-3.59 -1.29,-6.19 -0.1,-2.61 0.16,-5.31 -0.21,-6.63 -0.38,-1.32 -1.38,-1.24 -2.39,-0.42 -1,0.83 -2,2.4 -2.91,4.69 -0.91,2.3 -1.72,5.31 -2.13,6.81 -0.41,1.51 -0.99,1.51 -0.92,-0.21 0.1,-1.71 0.22,-5.14 0.25,-7.8 0,-2.67 -0.1,-4.56 -0.2,-5.45 -0.12,-0.88 -0.28,-0.74 -1.81,2.15 -1.53,2.89 -4.45,8.55 -7.37,14.2"
 id="path5211"
 inkscape:path-effect="#path-effect5213"
 inkscape:original-d="m 37.94,34.76 c -1.57,1.03 -3.14,2.07 -4.71,3.1 -5,0.33 -9.99,0.65 -14.99,0.98 -1.9,-2.26 -3.81,-4.51 -5.71,-6.78 -0.1,-3.75 -0.14,-7.52 -0.22,-11.28 1.45,-2.82 2.9,-5.63 4.34,-8.45 4.54,-0.12 9.08,-0.24 13.61,-0.35 2.18,1.55 4.35,3.11 6.53,4.67 0.4,3.72 0.79,7.44 1.2,11.16 -0.4,1.43 -0.8,2.85 -1.19,4.27 -1.32,0.31 -2.64,0.63 -3.96,0.95 -0.37,-2.49 -0.75,-4.99 -1.13,-7.48 0.24,-2.72 0.48,-5.42 0.71,-8.13 -0.99,0.1 -1.99,0.14 -3,0.22 -1,1.58 -2,3.15 -3,4.73 -0.81,3.01 -1.63,6.02 -2.45,9.03 h -0.58 c 0.15,-3.43 0.29,-6.86 0.44,-10.29 -0.1,-1.9 -0.19,-3.79 -0.3,-5.69 -0.14,0.13 -0.3,0.27 -0.45,0.41 -2.91,5.64 -8.75,16.95 -8.75,16.95"
 sodipodi:nodetypes="ccccccccccccccccccccc" />
</g>
</svg>
