<?xml version="1.0" encoding="UTF-8" standalone="no"?>
<!-- Created with Inkscape (http://www.inkscape.org/) -->

<svg
 width="50"
 height="50"
 viewBox="0 0 50 50.02"
 version="1.1"
 id="svg5"
 inkscape:version="1.2.1 (9c6d41e, 2022-07-14)"
 sodipodi:docname="book.svg"
 xmlns:inkscape="http://www.inkscape.org/namespaces/inkscape"
 xmlns:sodipodi="http://sodipodi.sourceforge.net/DTD/sodipodi-0.dtd"
 xmlns="http://www.w3.org/2000/svg"
 xmlns:svg="http://www.w3.org/2000/svg">
<sodipodi:namedview
 id="namedview7"
 pagecolor="#ffffff"
 bordercolor="#999999"
 borderopacity="1"
 inkscape:showpageshadow="0"
 inkscape:pageopacity="0"
 inkscape:pagecheckerboard="0"
 inkscape:deskcolor="#d1d1d1"
 inkscape:document-units="mm"
 showgrid="false"
 inkscape:zoom="32"
 inkscape:cx="25.37"
 inkscape:cy="20.36"
 inkscape:window-width="1846"
 inkscape:window-height="1016"
 inkscape:window-x="74"
 inkscape:window-y="27"
 inkscape:window-maximized="1"
 inkscape:current-layer="layer1"
 showguides="true" />
<defs
 id="defs2">
<inkscape:path-effect
 effect="bspline"
 id="path-effect4439"
 is_visible="true"
 lpeversion="1"
 weight="33.33"
 steps="2"
 helper_size="0"
 apply_no_weight="true"
 apply_with_weight="true"
 only_selected="false" />
<inkscape:path-effect
 effect="bspline"
 id="path-effect4435"
 is_visible="true"
 lpeversion="1"
 weight="33.33"
 steps="2"
 helper_size="0"
 apply_no_weight="true"
 apply_with_weight="true"
 only_selected="false" />
<inkscape:path-effect
 effect="bspline"
 id="path-effect4431"
 is_visible="true"
 lpeversion="1"
 weight="33.33"
 steps="2"
 helper_size="0"
 apply_no_weight="true"
 apply_with_weight="true"
 only_selected="false" />
<inkscape:path-effect
 effect="bspline"
 id="path-effect4427"
 is_visible="true"
 lpeversion="1"
 weight="33.33"
 steps="2"
 helper_size="0"
 apply_no_weight="true"
 apply_with_weight="true"
 only_selected="false" />
<inkscape:path-effect
 effect="bspline"
 id="path-effect4423"
 is_visible="true"
 lpeversion="1"
 weight="33.33"
 steps="2"
 helper_size="0"
 apply_no_weight="true"
 apply_with_weight="true"
 only_selected="false" />
<inkscape:path-effect
 effect="bspline"
 id="path-effect4419"
 is_visible="true"
 lpeversion="1"
 weight="33.33"
 steps="2"
 helper_size="0"
 apply_no_weight="true"
 apply_with_weight="true"
 only_selected="false" />
<inkscape:path-effect
 effect="bspline"
 id="path-effect2946"
 is_visible="true"
 lpeversion="1"
 weight="33.33"
 steps="2"
 helper_size="0"
 apply_no_weight="true"
 apply_with_weight="true"
 only_selected="false" />
<inkscape:path-effect
 effect="bspline"
 id="path-effect2737"
 is_visible="true"
 lpeversion="1"
 weight="33.33"
 steps="2"
 helper_size="0"
 apply_no_weight="true"
 apply_with_weight="true"
 only_selected="false" />
<inkscape:path-effect
 effect="bspline"
 id="path-effect1550"
 is_visible="true"
 lpeversion="1"
 weight="33.33"
 steps="2"
 helper_size="0"
 apply_no_weight="true"
 apply_with_weight="true"
 only_selected="false" />
<inkscape:path-effect
 effect="bspline"
 id="path-effect1546"
 is_visible="true"
 lpeversion="1"
 weight="33.33"
 steps="2"
 helper_size="0"
 apply_no_weight="true"
 apply_with_weight="true"
 only_selected="false" />
<inkscape:path-effect
 effect="bspline"
 id="path-effect1542"
 is_visible="true"
 lpeversion="1"
 weight="33.33"
 steps="2"
 helper_size="0"
 apply_no_weight="true"
 apply_with_weight="true"
 only_selected="false" />
<inkscape:path-effect
 effect="bspline"
 id="path-effect2737-3"
 is_visible="true"
 lpeversion="1"
 weight="33.33"
 steps="2"
 helper_size="0"
 apply_no_weight="true"
 apply_with_weight="true"
 only_selected="false" />
</defs>
<g
 inkscape:label="Livello 1"
 inkscape:groupmode="layer"
 id="layer1">
<path
 style="fill:none;stroke:#000000;stroke-width:1px;stroke-linecap:butt;stroke-linejoin:miter;stroke-opacity:1"
 d="M 8.831,7.813 C 8.511,8.542 8.192,9.27 8.909,9.492 9.625,9.714 11.38,9.429 11.4,8.433 11.43,7.438 9.727,5.724 8.276,5.943 6.824,6.163 5.619,8.316 6.527,11.29 7.435,14.26 10.46,18.06 11.18,23.35 11.9,28.64 10.32,35.43 8.804,38.87 7.288,42.3 5.833,42.39 4.817,41.77 3.802,41.16 3.229,39.86 3.493,38.64 c 0.264,-1.21 1.37,-2.35 2.004,-2.2 0.635,0.15 0.804,1.59 0.973,3.02"
 id="path2735"
 inkscape:path-effect="#path-effect2737"
 inkscape:original-d="M 8.831,7.813 C 8.513,8.543 8.194,9.271 7.873,9.999 9.625,9.716 11.38,9.432 13.12,9.146 11.43,7.435 9.728,5.723 8.029,4.01 6.825,6.164 5.619,8.316 4.413,10.47 7.438,14.26 10.46,18.06 13.48,21.85 11.9,28.64 10.32,35.43 8.741,42.22 7.288,42.3 5.833,42.39 4.378,42.47 3.805,41.16 3.231,39.86 2.656,38.56 c 1.103,-1.13 2.206,-2.27 3.307,-3.4 0.17,1.43 0.339,2.87 0.507,4.3" />
<path
 style="fill:none;stroke:#000000;stroke-width:1px;stroke-linecap:butt;stroke-linejoin:miter;stroke-opacity:1"
 d="m 41.56,6.484 c -0.87,0.923 -1.73,1.84 -2.13,3.044 -0.39,1.202 -0.31,2.682 0.36,4.782 0.67,2.09 1.92,4.79 1.85,9.51 -0.1,4.72 -1.48,11.48 -2.91,14.89 -1.43,3.41 -2.89,3.5 -8.41,3.51 -5.53,0 -15.03,-0 -24.528,-0.12"
 id="path2735-6"
 sodipodi:nodetypes="ccccccc"
 inkscape:original-d="m 41.56,6.484 c -0.87,0.921 -1.73,1.842 -2.6,2.762 0.1,1.484 0.16,2.964 0.24,4.454 1.26,2.7 2.51,5.4 3.77,8.1 -1.41,6.74 -2.81,13.5 -4.22,20.24 -1.45,0.1 -2.91,0.17 -4.36,0.25 -9.6,-0.1 -19.1,-0.12 -28.598,-0.19"
 inkscape:path-effect="#path-effect2737-3" />
<path
 style="fill:none;stroke:#000000;stroke-width:1px;stroke-linecap:butt;stroke-linejoin:miter;stroke-opacity:1"
 d="M 8.601,5.86 C 19.58,6.102 30.56,6.344 41.54,6.586"
 id="path2944"
 inkscape:path-effect="#path-effect2946"
 inkscape:original-d="M 8.601,5.86 C 19.58,6.103 30.56,6.345 41.54,6.586"
 sodipodi:nodetypes="cc" />
<path
 style="fill:none;stroke:#000000;stroke-width:1px;stroke-linecap:butt;stroke-linejoin:miter;stroke-opacity:1"
 d="m 18.55,11.64 c 0,0.14 0,0.28 -0.25,0.92 -0.24,0.64 -0.74,1.78 -1.23,2.92"
 id="path4417"
 inkscape:path-effect="#path-effect4419"
 inkscape:original-d="m 18.55,11.64 c 0,0.14 0,0.28 0,0.42 -0.49,1.14 -0.99,2.28 -1.48,3.42" />
<path
 style="fill:none;stroke:#000000;stroke-width:1px;stroke-linecap:butt;stroke-linejoin:miter;stroke-opacity:1"
 d="m 18.87,11.87 c 0.48,1.18 0.96,2.36 1.44,3.54"
 id="path4421"
 inkscape:path-effect="#path-effect4423"
 inkscape:original-d="m 18.87,11.87 c 0.48,1.18 0.96,2.36 1.44,3.54" />
<path
 style="fill:none;stroke:#000000;stroke-width:1px;stroke-linecap:butt;stroke-linejoin:miter;stroke-opacity:1"
 d="m 17.65,13.98 c 0.66,-0 1.32,-0.1 1.97,-0.1"
 id="path4425"
 inkscape:path-effect="#path-effect4427"
 inkscape:original-d="m 17.65,13.98 c 0.66,0 1.32,-0.1 1.97,-0.1" />
<path
 style="fill:none;stroke:#000000;stroke-width:1px;stroke-linecap:butt;stroke-linejoin:miter;stroke-opacity:1"
 d="m 23.16,12.14 c 0,1.08 0.1,2.15 0.12,3.23"
 id="path4429"
 inkscape:path-effect="#path-effect4431"
 inkscape:original-d="m 23.16,12.14 c 0,1.08 0.1,2.15 0.12,3.23" />
<path
 style="fill:none;stroke:#000000;stroke-width:1px;stroke-linecap:butt;stroke-linejoin:miter;stroke-opacity:1"
 d="m 23.27,15.02 c 0.75,-0 1.51,-0.11 1.92,-0.33 0.42,-0.23 0.48,-0.61 0.14,-0.79 -0.34,-0.18 -1.09,-0.14 -1.09,-0.17 -0,-0 0.73,-0.1 1.11,-0.33 0.39,-0.24 0.42,-0.63 0,-0.87 -0.39,-0.23 -1.2,-0.3 -2.01,-0.37"
 id="path4433"
 inkscape:path-effect="#path-effect4435"
 inkscape:original-d="m 23.27,15.02 c 0.75,-0.1 1.51,-0.11 2.27,-0.16 0.1,-0.39 0.13,-0.78 0.2,-1.17 -0.75,0 -1.5,0 -2.25,0.1 0.74,-0.1 1.48,-0.16 2.21,-0.24 0,-0.39 0.1,-0.78 0.11,-1.18 -0.81,-0.1 -1.62,-0.14 -2.43,-0.21" />
<path
 style="fill:none;stroke:#000000;stroke-width:1px;stroke-linecap:butt;stroke-linejoin:miter;stroke-opacity:1"
 d="m 30.92,12.19 c -0.52,0.36 -1.06,0.72 -1.32,1.21 -0.27,0.48 -0.27,1.08 0.1,1.35 0.34,0.26 1.03,0.19 1.71,0.11"
 id="path4437"
 inkscape:path-effect="#path-effect4439"
 inkscape:original-d="m 30.92,12.19 c -0.52,0.36 -1.06,0.72 -1.59,1.08 0,0.61 0,1.21 0,1.82 0.69,-0.1 1.38,-0.15 2.06,-0.23" />
</g>
</svg>
